/vscmnt/brussel_pixiu_data/_data_brussel/112/vsc11236/PredSimResults/SUBJ09mtu3D/worker4.mot
version=1
nRows=4
nColumns=50
inDegrees=yes
endheader
                time	         pelvis_tilt	         pelvis_list	     pelvis_rotation	           pelvis_tx	           pelvis_ty	           pelvis_tz	       hip_flexion_r	     hip_adduction_r	      hip_rotation_r	        knee_angle_r	       ankle_angle_r	         mtp_angle_r	       hip_flexion_l	     hip_adduction_l	      hip_rotation_l	        knee_angle_l	       ankle_angle_l	         mtp_angle_l	    lumbar_extension	      lumbar_bending	     lumbar_rotation	 ercspn_r/activation	 intobl_r/activation	 extobl_r/activation	    abd_r/activation	    add_r/activation	hamstrings_r/activation	bifemsh_r/activation	glut_max_r/activation	iliopsoas_r/activation	rect_fem_r/activation	  vasti_r/activation	gastroc_r/activation	 soleus_r/activation	tib_ant_r/activation	 ercspn_l/activation	 intobl_l/activation	 extobl_l/activation	    abd_l/activation	    add_l/activation	hamstrings_l/activation	bifemsh_l/activation	glut_max_l/activation	iliopsoas_l/activation	rect_fem_l/activation	  vasti_l/activation	gastroc_l/activation	 soleus_l/activation	tib_ant_l/activation	
          1.26999994	         -3.34558230	         -1.73521700	          8.95910767	          1.57479993	          0.98527346	         -0.00482130	         28.99023192	         -1.14517430	         -8.70403492	         -6.89908608	          2.40610940	          0.23547928	        -16.64238765	         -3.35785622	         -4.60225188	         -7.56640274	          5.09411120	         35.13732211	        -13.85263874	         -0.13340476	         -5.22146622	          0.03754516	          0.15712975	          0.03673656	          0.00999999	          0.24061792	          0.05007962	          0.20074687	          0.07386153	          0.15505583	          0.01181180	          0.00999999	          0.02678138	          0.01090206	          0.35885150	          0.02349681	          0.01000000	          0.01000000	          0.02871964	          0.01203397	          0.02137877	          0.16966942	          0.01344827	          0.01211674	          0.01000001	          0.01000000	          0.40775730	          0.16455087	          0.00999999	
          1.28269994	         -3.37728743	         -1.80831863	          8.91630610	          1.59513050	          0.98347442	         -0.00409302	         28.93584366	         -1.00302091	         -8.88250051	         -8.82597703	          2.14121044	          0.20391976	        -17.18046812	         -3.64486475	         -5.13140150	         -8.52665668	          3.75091853	         37.00492780	        -13.38011610	          0.26189842	         -5.41805423	          0.03098638	          0.12968068	          0.03031903	          0.06156983	          0.19858428	          0.06243174	          0.16567830	          0.11483555	          0.12796905	          0.00999999	          0.00999999	          0.02210293	          0.01211665	          0.39533352	          0.01939215	          0.01000000	          0.01000035	          0.02370259	          0.01000000	          0.03007923	          0.14002979	          0.01190214	          0.01000008	          0.01000000	          0.01000001	          0.36900131	          0.13691829	          0.00999999	
          1.29539994	         -3.39243073	         -1.88537852	          8.83730139	          1.61574021	          0.98202419	         -0.00327350	         28.76254565	         -0.84548000	         -9.04612098	        -10.57285267	          1.68568366	          0.19389361	        -17.47898256	         -3.95997539	         -5.68744270	         -9.95670672	          2.30135089	         38.81347062	        -12.89295822	          0.66150195	         -5.58845884	          0.02618648	          0.10702669	          0.02502259	          0.12330634	          0.22108902	          0.05810276	          0.13673588	          0.13460029	          0.10561408	          0.01000000	          0.00999999	          0.01824176	          0.00999999	          0.43137617	          0.03648351	          0.00999999	          0.01000000	          0.01956198	          0.01000000	          0.02482468	          0.11556792	          0.00999999	          0.01000021	          0.01000001	          0.01000001	          0.30559358	          0.11299997	          0.00999999	
          1.30809994	         -3.39095870	         -1.95387482	          8.72367915	          1.63628408	          0.98108745	         -0.00234580	         28.64193526	         -0.69586313	         -9.19871837	        -12.45004985	          1.32472078	          0.15823474	        -17.42598212	         -4.30389680	         -6.25613090	        -12.02107051	          0.77332028	         40.42574066	        -12.43310056	          1.05105066	         -5.73156455	          0.04308807	          0.08833015	          0.02065138	          0.18334720	          0.27122627	          0.05237834	          0.11284942	          0.16917357	          0.08716430	          0.01000000	          0.02950365	          0.01505510	          0.01151112	          0.44049443	          0.08913539	          0.01000000	          0.01000000	          0.01614468	          0.03398259	          0.02048806	          0.09537930	          0.01000000	          0.01000013	          0.01000001	          0.01000004	          0.25220928	          0.09325995	          0.00999999	
